<svg id="w11k_Logo_Sub_zentriert_rechts" data-name="w11k Logo Sub zentriert rechts" xmlns="http://www.w3.org/2000/svg"
     viewBox="0 0 305.19 36.14">
  <defs>
    <style>.cls-1{fill:#0000c8;}</style>
  </defs>
  <title>w11K_CorporateDesign_Logo_Sub_Zen_Re_C100M95Y0K3</title>
  <polygon class="cls-1" points="80.08 11.34 80.08 36.14 90.71 36.14 90.71 0 80.08 11.34"/>
  <polygon class="cls-1" points="58.82 11.34 58.82 36.14 69.45 36.14 69.45 0 58.82 11.34"/>
  <polygon class="cls-1" points="111.97 20.55 111.97 0 101.34 0 101.34 31.89 111.97 20.55"/>
  <polygon class="cls-1" points="49.42 27.64 41.46 36.14 24.09 0 36.14 0 49.42 27.64"/>
  <polygon class="cls-1" points="12.05 0 25.32 27.64 17.36 36.14 0 0 12.05 0"/>
  <polygon class="cls-1" points="145.63 0 133.01 0 116.07 18.07 133.01 36.14 145.63 36.14 128.69 18.07 145.63 0"/>
  <path class="cls-1"
        d="M305.19,20.51a3,3,0,0,0-2.78-2.89l-2-.25a1.83,1.83,0,0,1-1.88-1.86,2,2,0,0,1,.72-1.54,3.1,3.1,0,0,1,2-.64,3,3,0,0,1,2.31.91,2.45,2.45,0,0,1,.59,1.35H305a3.07,3.07,0,0,0-.81-1.84,4.16,4.16,0,0,0-5.51-.24,2.67,2.67,0,0,0,1.68,4.69l2,0.26a2.17,2.17,0,0,1,2.07,2.07,2,2,0,0,1-.63,1.53,3.54,3.54,0,0,1-2.42.79A3.28,3.28,0,0,1,299,22a2.88,2.88,0,0,1-.78-1.63H297.4a3.58,3.58,0,0,0,1,2.11,4,4,0,0,0,3,1.14,4.22,4.22,0,0,0,3-1,2.7,2.7,0,0,0,.84-2m-10.26-4.69c0,1.51-1,2.32-2.78,2.32H289V13.49h3.11c1.76,0,2.78.81,2.78,2.32m0.81,0c0-1.84-1.26-3.06-3.59-3.06h-3.89V23.39H289V18.86h3.71l2.09,4.53h0.86l-2.16-4.72a2.88,2.88,0,0,0,2.21-2.85M286,23.39V22.64h-6V18.15h5.3V17.41H280v-3.9h6V12.76h-6.82V23.39H286Zm-9.08,0V22.64h-6V18.15h5.3V17.41h-5.3v-3.9h6V12.76h-6.82V23.39h6.82Zm-9.85,0V12.76h-0.77v9.4l-6.19-9.4h-0.89V23.39H260V14l6.17,9.41h0.89ZM256.22,12.76h-0.8V23.39h0.8V12.76Zm-3.61,10.63v-5.5h-3.93v0.76h3.14a4.61,4.61,0,0,1-.93,3.33,3,3,0,0,1-2.13.84,3.07,3.07,0,0,1-2.18-.82c-1-.94-1.17-2.62-1.17-3.91a5.44,5.44,0,0,1,1.16-3.88,3.48,3.48,0,0,1,4.53-.06,2.56,2.56,0,0,1,.71,1.59h0.8a3.55,3.55,0,0,0-3.84-3.16,4,4,0,0,0-2.81,1.15,5.93,5.93,0,0,0-1.35,4.36,6,6,0,0,0,1.35,4.38,4,4,0,0,0,2.81,1.12,3.47,3.47,0,0,0,3.11-1.83L252,23.39h0.59Zm-10.52,0V12.76h-0.77v9.4l-6.19-9.4h-0.89V23.39H235V14l6.17,9.41h0.89Zm-10.1,0V22.64h-6V18.15h5.3V17.41H226v-3.9h6V12.76h-6.82V23.39H232Zm-13.93-3c0,1.84-1.4,2.26-2.85,2.26h-3V18.21h3c1.55,0,2.85.43,2.85,2.17m-0.24-5c0,1.69-1.14,2-2.61,2h-3v-4h3c1.29,0,2.61.45,2.61,1.93m1,5a2.49,2.49,0,0,0-1.94-2.59,2.33,2.33,0,0,0,1.7-2.49,2.5,2.5,0,0,0-1.1-2,4.15,4.15,0,0,0-2.31-.57h-3.77V23.39h3.77a4.12,4.12,0,0,0,2.67-.73,2.76,2.76,0,0,0,1-2.2m-9.68,2.94V22.64h-6V18.15h5.3V17.41h-5.3v-3.9h6V12.76h-6.82V23.39h6.82Zm-9-10.63h-0.74l-2,9.5-2.82-9.34H194l-2.81,9.34-2-9.5h-0.74l2.24,10.63h0.83l2.81-9.31,2.81,9.31H198Zm-17,10.63V22.64h-6V18.15h5.3V17.41h-5.3v-3.9h6V12.76h-6.82V23.39h6.82Zm-9.85,0V12.76h-0.78v4.65h-5.95V12.76h-0.78V23.39h0.78V18.17h5.95v5.22h0.78Zm-9.53-9.88V12.76h-7.55v0.75h3.38v9.88h0.78V13.51h3.39Z"
        transform="translate(0 0)"/>
</svg>
