<svg id="w11k_Logo_Sub_zentriert_links" data-name="w11k Logo Sub zentriert links" xmlns="http://www.w3.org/2000/svg"
     viewBox="0 0 305.19 36.14">
  <defs>
    <style>.cls-1{fill:#0000c8;}</style>
  </defs>
  <title>w11K_CorporateDesign_Logo_Sub_Zen_Li_C100M95Y0K3</title>
  <polygon class="cls-1" points="239.64 11.34 239.64 36.14 250.27 36.14 250.27 0 239.64 11.34"/>
  <polygon class="cls-1" points="218.38 11.34 218.38 36.14 229.01 36.14 229.01 0 218.38 11.34"/>
  <polygon class="cls-1" points="271.53 20.55 271.53 0 260.9 0 260.9 31.89 271.53 20.55"/>
  <polygon class="cls-1" points="208.98 27.64 201.02 36.14 183.66 0 195.7 0 208.98 27.64"/>
  <polygon class="cls-1" points="171.61 0 184.89 27.64 176.93 36.14 159.56 0 171.61 0"/>
  <polygon class="cls-1" points="305.19 0 292.57 0 275.63 18.07 292.57 36.14 305.19 36.14 288.25 18.07 305.19 0"/>
  <path class="cls-1"
        d="M148.93,20.51a3,3,0,0,0-2.78-2.89l-2-.25a1.83,1.83,0,0,1-1.88-1.86A2,2,0,0,1,143,14a3.1,3.1,0,0,1,2-.64,3,3,0,0,1,2.31.91,2.45,2.45,0,0,1,.59,1.35h0.8a3.07,3.07,0,0,0-.81-1.84,4.16,4.16,0,0,0-5.51-.24,2.67,2.67,0,0,0,1.68,4.69l2,0.26a2.17,2.17,0,0,1,2.07,2.07,2,2,0,0,1-.63,1.53,3.54,3.54,0,0,1-2.42.79,3.28,3.28,0,0,1-2.34-.87,2.88,2.88,0,0,1-.78-1.63h-0.81a3.58,3.58,0,0,0,1,2.11,4,4,0,0,0,3,1.14,4.22,4.22,0,0,0,3-1,2.7,2.7,0,0,0,.84-2m-10.26-4.69c0,1.51-1,2.32-2.78,2.32h-3.11V13.49h3.11c1.76,0,2.78.81,2.78,2.32m0.81,0c0-1.84-1.26-3.06-3.59-3.06H132V23.39h0.78V18.86h3.71l2.09,4.53h0.86l-2.16-4.72a2.88,2.88,0,0,0,2.21-2.85m-9.74,7.57V22.64h-6V18.15H129V17.41h-5.3v-3.9h6V12.76h-6.82V23.39h6.82Zm-9.08,0V22.64h-6V18.15h5.3V17.41h-5.3v-3.9h6V12.76h-6.82V23.39h6.82Zm-9.85,0V12.76H110v9.4l-6.19-9.4H103V23.39h0.78V14l6.17,9.41h0.89ZM100,12.76h-0.8V23.39H100V12.76ZM96.36,23.39v-5.5H92.42v0.76h3.14A4.61,4.61,0,0,1,94.63,22a3,3,0,0,1-2.13.84A3.07,3.07,0,0,1,90.32,22c-1-.94-1.17-2.62-1.17-3.91A5.44,5.44,0,0,1,90.3,14.2a3.48,3.48,0,0,1,4.53-.06,2.56,2.56,0,0,1,.71,1.59h0.8a3.55,3.55,0,0,0-3.84-3.16,4,4,0,0,0-2.81,1.15,5.93,5.93,0,0,0-1.35,4.36,6,6,0,0,0,1.35,4.38,4,4,0,0,0,2.81,1.12,3.47,3.47,0,0,0,3.11-1.83l0.17,1.63h0.59Zm-10.52,0V12.76H85.07v9.4l-6.19-9.4H78V23.39h0.78V14l6.17,9.41h0.89Zm-10.1,0V22.64h-6V18.15H75V17.41h-5.3v-3.9h6V12.76H68.92V23.39h6.82Zm-13.93-3c0,1.84-1.4,2.26-2.85,2.26H56V18.21h3c1.55,0,2.85.43,2.85,2.17m-0.24-5c0,1.69-1.14,2-2.61,2H56v-4h3c1.29,0,2.61.45,2.61,1.93m1,5a2.49,2.49,0,0,0-1.94-2.59,2.33,2.33,0,0,0,1.7-2.49,2.5,2.5,0,0,0-1.1-2,4.15,4.15,0,0,0-2.31-.57H55.18V23.39h3.77a4.12,4.12,0,0,0,2.67-.73,2.76,2.76,0,0,0,1-2.2m-9.68,2.94V22.64h-6V18.15h5.3V17.41H46.9v-3.9h6V12.76H46.1V23.39h6.82Zm-9-10.63H43.2l-2,9.5-2.82-9.34H37.7L34.9,22.26l-2-9.5H32.16L34.4,23.39h0.83L38,14.08l2.81,9.31H41.7Zm-17,10.63V22.64h-6V18.15h5.3V17.41h-5.3v-3.9h6V12.76H20.12V23.39h6.82Zm-9.85,0V12.76H16.31v4.65H10.36V12.76H9.58V23.39h0.78V18.17h5.95v5.22h0.78ZM7.55,13.51V12.76H0v0.75H3.38v9.88H4.16V13.51H7.55Z"
        transform="translate(0 0)"/>
</svg>
