<svg id="w11k_Logo_w11k_Sub_Re" data-name="w11k Logo w11k Sub Re" xmlns="http://www.w3.org/2000/svg"
     viewBox="0 0 145.7 46.86">
  <defs>
    <style>.cls-1{fill:#0000c8;}</style>
  </defs>
  <title>w11K_CorporateDesign_Logo_Sub_w11k_C100M95Y0K3</title>
  <polygon class="cls-1" points="80.08 11.34 80.08 36.14 90.71 36.14 90.71 0 80.08 11.34"/>
  <polygon class="cls-1" points="58.82 11.34 58.82 36.14 69.45 36.14 69.45 0 58.82 11.34"/>
  <polygon class="cls-1" points="111.97 20.55 111.97 0 101.34 0 101.34 31.89 111.97 20.55"/>
  <polygon class="cls-1" points="49.42 27.64 41.46 36.14 24.09 0 36.14 0 49.42 27.64"/>
  <polygon class="cls-1" points="12.05 0 25.32 27.64 17.36 36.14 0 0 12.05 0"/>
  <polygon class="cls-1" points="145.63 0 133.01 0 116.07 18.07 133.01 36.14 145.63 36.14 128.69 18.07 145.63 0"/>
  <path class="cls-1" d="M81.92,42.39v4.38H81.57V42.39H80.08V42.06h3.34v0.33h-1.5Z" transform="translate(0 0)"/>
  <path class="cls-1" d="M87.29,46.77V44.46H84.66v2.31H84.32V42.06h0.35v2.06h2.63V42.06h0.35v4.71H87.29Z"
        transform="translate(0 0)"/>
  <path class="cls-1" d="M88.94,46.77V42.06h3v0.33H89.29v1.73h2.34v0.33H89.29v2H92v0.33h-3Z"
        transform="translate(0 0)"/>
  <path class="cls-1"
        d="M98.41,46.77H98l-1.24-4.12-1.24,4.12H95.18l-1-4.71h0.33l0.88,4.21,1.24-4.14H97l1.25,4.14,0.87-4.21H99.4Z"
        transform="translate(0 0)"/>
  <path class="cls-1" d="M100.38,46.77V42.06h3v0.33h-2.66v1.73h2.34v0.33h-2.34v2h2.66v0.33h-3Z"
        transform="translate(0 0)"/>
  <path class="cls-1"
        d="M107.24,46.45a1.82,1.82,0,0,1-1.18.33h-1.67V42.06h1.67a1.83,1.83,0,0,1,1,.25,1.11,1.11,0,0,1,.48.9,1,1,0,0,1-.75,1.1,1.1,1.1,0,0,1,.86,1.15A1.22,1.22,0,0,1,107.24,46.45Zm-1.18-4.06h-1.32v1.76h1.32c0.65,0,1.16-.15,1.16-0.9A1,1,0,0,0,106.06,42.39Zm0,2.09h-1.32v2h1.32a1,1,0,0,0,1.26-1A1,1,0,0,0,106.06,44.48Z"
        transform="translate(0 0)"/>
  <path class="cls-1" d="M110.39,46.77V42.06h3v0.33h-2.66v1.73h2.34v0.33h-2.34v2h2.66v0.33h-3Z"
        transform="translate(0 0)"/>
  <path class="cls-1" d="M117.5,46.77l-2.73-4.17v4.17h-0.35V42.06h0.39l2.74,4.16V42.06h0.34v4.71H117.5Z"
        transform="translate(0 0)"/>
  <path class="cls-1"
        d="M122.24,46.77L122.17,46a1.53,1.53,0,0,1-1.37.81,1.76,1.76,0,0,1-1.24-.5,2.67,2.67,0,0,1-.6-1.94,2.63,2.63,0,0,1,.6-1.93,1.79,1.79,0,0,1,1.24-.51,1.57,1.57,0,0,1,1.7,1.4h-0.35a1.13,1.13,0,0,0-.31-0.7,1.54,1.54,0,0,0-2,0,2.41,2.41,0,0,0-.51,1.72,2.41,2.41,0,0,0,.52,1.73,1.36,1.36,0,0,0,1,.37,1.31,1.31,0,0,0,.94-0.37,2,2,0,0,0,.41-1.47h-1.39V44.33h1.74v2.44h-0.26Z"
        transform="translate(0 0)"/>
  <path class="cls-1" d="M123.76,46.77V42.06h0.35v4.71h-0.35Z" transform="translate(0 0)"/>
  <path class="cls-1" d="M128.51,46.77l-2.73-4.17v4.17h-0.35V42.06h0.39l2.74,4.16V42.06h0.34v4.71h-0.39Z"
        transform="translate(0 0)"/>
  <path class="cls-1" d="M130.24,46.77V42.06h3v0.33h-2.66v1.73h2.34v0.33h-2.34v2h2.66v0.33h-3Z"
        transform="translate(0 0)"/>
  <path class="cls-1" d="M134.25,46.77V42.06h3v0.33H134.6v1.73h2.34v0.33H134.6v2h2.66v0.33h-3Z"
        transform="translate(0 0)"/>
  <path class="cls-1"
        d="M140.59,44.68l1,2.09h-0.38l-0.92-2H138.6v2h-0.35V42.06H140a1.36,1.36,0,0,1,1.59,1.35A1.27,1.27,0,0,1,140.59,44.68ZM140,42.39H138.6v2.06H140A1,1,0,1,0,140,42.39Z"
        transform="translate(0 0)"/>
  <path class="cls-1"
        d="M145.32,46.4a1.86,1.86,0,0,1-1.33.46,1.76,1.76,0,0,1-1.31-.5,1.59,1.59,0,0,1-.43-0.94h0.36a1.28,1.28,0,0,0,.35.72,1.45,1.45,0,0,0,1,.39,1.56,1.56,0,0,0,1.07-.35,0.9,0.9,0,0,0,.28-0.68,1,1,0,0,0-.92-0.92l-0.88-.11a1.18,1.18,0,0,1-.74-2.08,1.84,1.84,0,0,1,2.44.11,1.36,1.36,0,0,1,.36.82h-0.35a1.08,1.08,0,0,0-.26-0.6,1.32,1.32,0,0,0-1-.41,1.37,1.37,0,0,0-.9.29,0.89,0.89,0,0,0-.32.68,0.81,0.81,0,0,0,.83.82l0.89,0.11a1.31,1.31,0,0,1,1.23,1.28A1.2,1.2,0,0,1,145.32,46.4Z"
        transform="translate(0 0)"/>
  <path class="cls-1"
        d="M63,46.77H62.66l-1.24-4.12-1.24,4.12H59.81l-1-4.71h0.33L60,46.27l1.24-4.14h0.31l1.25,4.14,0.87-4.21H64Z"
        transform="translate(0 0)"/>
  <path class="cls-1" d="M66.1,46.77v-4.2l-1.15.84V43l1.18-.88h0.3v4.62H66.1Z" transform="translate(0 0)"/>
  <path class="cls-1" d="M69,46.77v-4.2l-1.15.84V43l1.18-.88h0.3v4.62H69Z" transform="translate(0 0)"/>
  <path class="cls-1"
        d="M74.12,46.77l-1.56-2.69-1.22,1.38v1.31H71V42.06h0.35V45l2.59-2.9h0.43l-1.56,1.76,1.72,2.95H74.12Z"
        transform="translate(0 0)"/>
</svg>
