<svg id="w11k_Logo_w11k_Sub_zentriert_links" data-name="w11k Logo w11k Sub zentriert links"
     xmlns="http://www.w3.org/2000/svg" viewBox="0 0 356.23 36.14">
  <defs>
    <style>.cls-1{fill:#0000c8;}</style>
  </defs>
  <title>w11K_CorporateDesign_Logo_Sub_w11k_Zen_Li_C100M95Y0K3</title>
  <polygon class="cls-1" points="290.68 11.34 290.68 36.14 301.31 36.14 301.31 0 290.68 11.34"/>
  <polygon class="cls-1" points="269.42 11.34 269.42 36.14 280.05 36.14 280.05 0 269.42 11.34"/>
  <polygon class="cls-1" points="322.57 20.55 322.57 0 311.94 0 311.94 31.89 322.57 20.55"/>
  <polygon class="cls-1" points="260.01 27.64 252.05 36.14 234.69 0 246.74 0 260.01 27.64"/>
  <polygon class="cls-1" points="222.65 0 235.92 27.64 227.96 36.14 210.6 0 222.65 0"/>
  <polygon class="cls-1" points="356.23 0 343.61 0 326.66 18.07 343.61 36.14 356.23 36.14 339.28 18.07 356.23 0"/>
  <path class="cls-1"
        d="M200,20.51a3,3,0,0,0-2.78-2.89l-2-.25a1.83,1.83,0,0,1-1.88-1.86A2,2,0,0,1,194,14a3.1,3.1,0,0,1,2-.64,3,3,0,0,1,2.31.91,2.44,2.44,0,0,1,.59,1.35h0.8a3.06,3.06,0,0,0-.81-1.84,4.16,4.16,0,0,0-5.51-.24,2.67,2.67,0,0,0,1.68,4.69l2,0.25a2.17,2.17,0,0,1,2.07,2.07,2,2,0,0,1-.63,1.53,3.54,3.54,0,0,1-2.42.79,3.28,3.28,0,0,1-2.34-.87,2.89,2.89,0,0,1-.78-1.63h-0.81a3.58,3.58,0,0,0,1,2.11,4,4,0,0,0,3,1.14,4.22,4.22,0,0,0,3-1,2.7,2.7,0,0,0,.84-2m-10.26-4.69c0,1.51-1,2.32-2.78,2.32h-3.11V13.49h3.11c1.76,0,2.78.81,2.78,2.32m0.81,0c0-1.84-1.26-3.06-3.59-3.06H183V23.39h0.78V18.86h3.71l2.09,4.53h0.86l-2.16-4.72a2.88,2.88,0,0,0,2.21-2.85m-9.74,7.57V22.64h-6V18.16h5.3V17.41h-5.3v-3.9h6V12.76H174V23.39h6.81Zm-9.08,0V22.64h-6V18.16H171V17.41h-5.3v-3.9h6V12.76h-6.81V23.39h6.81Zm-9.85,0V12.76h-0.77v9.4l-6.18-9.4H154V23.39h0.78V14L161,23.39h0.89ZM151,12.76h-0.8V23.39H151V12.76ZM147.4,23.39v-5.5h-3.93v0.76h3.14a4.61,4.61,0,0,1-.93,3.33,3,3,0,0,1-2.13.84,3.07,3.07,0,0,1-2.18-.82c-1-.94-1.17-2.62-1.17-3.91a5.44,5.44,0,0,1,1.16-3.88,3.48,3.48,0,0,1,4.53-.06,2.56,2.56,0,0,1,.71,1.59h0.8a3.55,3.55,0,0,0-3.84-3.16,4,4,0,0,0-2.81,1.15,5.93,5.93,0,0,0-1.35,4.36,6,6,0,0,0,1.35,4.38,4,4,0,0,0,2.81,1.12,3.47,3.47,0,0,0,3.11-1.83l0.16,1.63h0.59Zm-10.52,0V12.76h-0.77v9.4l-6.18-9.4H129V23.39h0.78V14L136,23.39h0.89Zm-10.1,0V22.64h-6V18.16h5.3V17.41h-5.3v-3.9h6V12.76H120V23.39h6.81Zm-13.93-3c0,1.84-1.4,2.26-2.85,2.26h-3V18.21h3c1.55,0,2.85.43,2.85,2.17m-0.24-5c0,1.69-1.14,2-2.61,2h-3v-4h3c1.29,0,2.61.45,2.61,1.93m1,5a2.49,2.49,0,0,0-1.94-2.59,2.33,2.33,0,0,0,1.7-2.49,2.5,2.5,0,0,0-1.1-2,4.15,4.15,0,0,0-2.31-.57h-3.77V23.39H110a4.12,4.12,0,0,0,2.67-.73,2.76,2.76,0,0,0,1-2.2M104,23.39V22.64H98V18.16h5.3V17.41H98v-3.9h6V12.76H97.16V23.39H104ZM95,12.76H94.25l-2,9.5-2.82-9.34H88.76L86,22.26l-2-9.5H83.22l2.24,10.63h0.83l2.81-9.31,2.81,9.31h0.86ZM78,23.39V22.64H72V18.16h5.3V17.41H72v-3.9h6V12.76H71.18V23.39H78Zm-9.85,0V12.76H67.37v4.65H61.42V12.76H60.64V23.39h0.78V18.17h5.94v5.22h0.78Zm-9.53-9.88V12.76H51.06v0.75h3.38v9.88h0.78V13.51h3.39Zm-11.38,5h-7V19.2h7V18.51ZM36.43,23.39l-3.89-6.66,3.53-4h-1l-5.85,6.55V12.76h-0.8V23.39h0.8v-3L32,17.32l3.53,6.07h0.89Zm-12,0V13H23.8l-2.67,2V15.8l2.6-1.9v9.49h0.75Zm-7,0V13H16.75l-2.67,2V15.8l2.6-1.9v9.49h0.75ZM11.77,12.76H11l-2,9.5L6.24,12.92H5.54L2.73,22.26l-2-9.5H0L2.24,23.39H3.06l2.81-9.31,2.81,9.31H9.53Z"
        transform="translate(0 0)"/>
</svg>
