<?xml version="1.0" encoding="utf-8"?>
<!-- Generator: Adobe Illustrator 19.2.1, SVG Export Plug-In . SVG Version: 6.00 Build 0)  -->
<svg version="1.1" id="w11k_Logo_Sub_zentriert_links"
	 xmlns="http://www.w3.org/2000/svg" xmlns:xlink="http://www.w3.org/1999/xlink" x="0px" y="0px" viewBox="0 0 305.2 36.1"
	 style="enable-background:new 0 0 305.2 36.1;" xml:space="preserve">
<style type="text/css">
	.st0{fill:#FFFFFF;}
</style>
<title>w11K_CorporateDesign_Logo_Sub_Zen_Li_C100M95Y0K3</title>
<polygon class="st0" points="239.6,11.3 239.6,36.1 250.3,36.1 250.3,0 "/>
<polygon class="st0" points="218.4,11.3 218.4,36.1 229,36.1 229,0 "/>
<polygon class="st0" points="271.5,20.5 271.5,0 260.9,0 260.9,31.9 "/>
<polygon class="st0" points="209,27.6 201,36.1 183.7,0 195.7,0 "/>
<polygon class="st0" points="171.6,0 184.9,27.6 176.9,36.1 159.6,0 "/>
<polygon class="st0" points="305.2,0 292.6,0 275.6,18.1 292.6,36.1 305.2,36.1 288.2,18.1 "/>
<path class="st0" d="M148.9,20.5c-0.1-1.5-1.3-2.8-2.8-2.9l-2-0.2c-1,0-1.9-0.8-1.9-1.8c0,0,0-0.1,0-0.1c0-0.6,0.3-1.1,0.7-1.5
	c0.6-0.4,1.3-0.7,2-0.6c0.9,0,1.7,0.3,2.3,0.9c0.3,0.4,0.5,0.9,0.6,1.4h0.8c-0.1-0.7-0.3-1.3-0.8-1.8c-1.5-1.5-3.9-1.6-5.5-0.2
	c-1.1,1-1.2,2.6-0.3,3.8c0.5,0.6,1.2,0.9,2,0.9l2,0.3c1.1,0.1,2,0.9,2.1,2.1c0,0.6-0.2,1.1-0.6,1.5c-0.7,0.6-1.5,0.8-2.4,0.8
	c-0.9,0-1.7-0.3-2.3-0.9c-0.4-0.4-0.7-1-0.8-1.6h-0.8c0.1,0.8,0.4,1.5,1,2.1c0.8,0.8,1.9,1.2,3,1.1c1.1,0.1,2.2-0.3,3-1
	c0.5-0.5,0.9-1.2,0.8-2 M138.7,15.9c0,1.5-1,2.3-2.8,2.3h-3.1v-4.8h3.1c1.8,0,2.8,0.8,2.8,2.3 M139.5,15.8c0-1.8-1.3-3.1-3.6-3.1h-4
	v10.6h0.8v-4.5h3.7l2.1,4.5h0.9l-2.2-4.7C138.6,18.4,139.5,17.2,139.5,15.8 M129.8,23.4v-0.8h-6v-4.5h5.2v-0.7h-5.3v-3.9h6v-0.8
	h-6.8v10.6L129.8,23.4L129.8,23.4z M120.7,23.4v-0.8h-6v-4.5h5.3v-0.7h-5.3v-3.9h6v-0.8h-6.8v10.6C113.8,23.4,120.7,23.4,120.7,23.4
	z M110.8,23.4V12.8H110v9.4l-6.2-9.4H103v10.6h0.8V14l6.2,9.4L110.8,23.4L110.8,23.4z M100,12.8h-0.8v10.6h0.8V12.8z M96.4,23.4
	v-5.5h-3.9v0.8h3.1c0.1,1.2-0.2,2.4-0.9,3.4c-0.6,0.6-1.3,0.9-2.1,0.8c-0.8,0-1.6-0.3-2.2-0.8c-1-0.9-1.2-2.6-1.2-3.9
	c-0.1-1.4,0.3-2.8,1.2-3.9c1.3-1.1,3.2-1.2,4.5-0.1c0.4,0.4,0.7,1,0.7,1.6h0.8c-0.2-1.9-1.9-3.3-3.8-3.2c-1.1,0-2.1,0.4-2.8,1.1
	c-1,1.2-1.5,2.8-1.3,4.4c-0.1,1.6,0.3,3.2,1.3,4.4c0.8,0.7,1.8,1.1,2.8,1.1c1.3,0,2.5-0.7,3.1-1.8l0.2,1.6L96.4,23.4L96.4,23.4z
	 M85.8,23.4V12.8h-0.8v9.4l-6.2-9.4H78v10.6h0.8V14l6.2,9.4L85.8,23.4L85.8,23.4z M75.7,23.4v-0.8h-6v-4.5H75v-0.7h-5.3v-3.9h6v-0.8
	h-6.8v10.6H75.7z M61.8,20.4c0,1.8-1.4,2.3-2.8,2.3h-3v-4.4h3C60.5,18.2,61.8,18.6,61.8,20.4 M61.6,15.4c0,1.7-1.1,2-2.6,2h-3v-4h3
	C60.3,13.4,61.6,13.8,61.6,15.4 M62.6,20.3c0.1-1.2-0.7-2.3-1.9-2.6c1.1-0.3,1.8-1.4,1.7-2.5c0-0.8-0.4-1.5-1.1-2
	c-0.7-0.4-1.5-0.6-2.3-0.6h-3.8v10.7H59c0.9,0.1,1.9-0.2,2.7-0.7c0.7-0.5,1-1.4,1-2.2 M52.9,23.4v-0.8h-6v-4.5h5.3v-0.7h-5.3v-3.9h6
	v-0.8h-6.8v10.6L52.9,23.4L52.9,23.4z M43.9,12.8h-0.7l-2,9.5l-2.8-9.3h-0.7l-2.8,9.3l-2-9.5h-0.7l2.2,10.6h0.8l2.8-9.3l2.8,9.3h0.9
	L43.9,12.8z M26.9,23.4v-0.8h-6v-4.5h5.3v-0.7h-5.3v-3.9h6v-0.8h-6.8v10.6L26.9,23.4L26.9,23.4z M17.1,23.4V12.8h-0.8v4.6h-5.9v-4.6
	H9.6v10.6h0.8v-5.2h5.9v5.2L17.1,23.4L17.1,23.4z M7.6,13.5v-0.8H0v0.8h3.4v9.9h0.8v-9.9H7.6z"/>
</svg>
