<?xml version="1.0" encoding="utf-8"?>
<!-- Generator: Adobe Illustrator 19.2.1, SVG Export Plug-In . SVG Version: 6.00 Build 0)  -->
<svg version="1.1" id="w11k_Logo_Sub_zentriert_rechts"
	 xmlns="http://www.w3.org/2000/svg" xmlns:xlink="http://www.w3.org/1999/xlink" x="0px" y="0px" viewBox="0 0 305.2 36.1"
	 style="enable-background:new 0 0 305.2 36.1;" xml:space="preserve">
<style type="text/css">
	.st0{fill:#FFFFFF;}
</style>
<title>w11K_CorporateDesign_Logo_Sub_Zen_Re_C100M95Y0K3</title>
<polygon class="st0" points="80.1,11.3 80.1,36.1 90.7,36.1 90.7,0 "/>
<polygon class="st0" points="58.8,11.3 58.8,36.1 69.4,36.1 69.4,0 "/>
<polygon class="st0" points="112,20.5 112,0 101.3,0 101.3,31.9 "/>
<polygon class="st0" points="49.4,27.6 41.5,36.1 24.1,0 36.1,0 "/>
<polygon class="st0" points="12.1,0 25.3,27.6 17.4,36.1 0,0 "/>
<polygon class="st0" points="145.6,0 133,0 116.1,18.1 133,36.1 145.6,36.1 128.7,18.1 "/>
<path class="st0" d="M305.2,20.5c-0.1-1.5-1.3-2.8-2.8-2.9l-2-0.2c-1,0-1.9-0.8-1.9-1.8c0,0,0-0.1,0-0.1c0-0.6,0.3-1.2,0.7-1.5
	c0.6-0.4,1.3-0.7,2-0.6c0.9,0,1.7,0.3,2.3,0.9c0.3,0.4,0.5,0.9,0.6,1.4h0.9c-0.1-0.7-0.3-1.3-0.8-1.8c-1.5-1.5-3.9-1.6-5.5-0.2
	c-1.1,1-1.2,2.6-0.3,3.8c0.5,0.6,1.2,0.9,2,0.9l2,0.3c1.1,0.1,2,0.9,2.1,2.1c0,0.6-0.2,1.1-0.6,1.5c-0.7,0.6-1.5,0.8-2.4,0.8
	c-0.9,0-1.7-0.3-2.4-0.9c-0.4-0.4-0.7-1-0.8-1.6h-0.8c0.1,0.8,0.4,1.5,1,2.1c0.8,0.8,1.9,1.2,3,1.1c1.1,0.1,2.2-0.3,3-1
	c0.5-0.5,0.9-1.2,0.8-2 M295,15.9c0,1.5-1,2.3-2.8,2.3H289v-4.8h3.1c1.8,0,2.8,0.8,2.8,2.3 M295.7,15.8c0-1.8-1.3-3.1-3.6-3.1h-3.9
	v10.6h0.8v-4.5h3.7l2.1,4.5h0.9l-2.2-4.7C294.8,18.4,295.7,17.2,295.7,15.8 M286,23.4v-0.8h-6v-4.5h5.3v-0.7H280v-3.9h6v-0.8h-6.8
	v10.6H286z M276.9,23.4v-0.8h-6v-4.5h5.3v-0.7h-5.3v-3.9h6v-0.8h-6.8v10.6H276.9z M267.1,23.4V12.8h-0.8v9.4l-6.2-9.4h-0.9v10.6h0.8
	V14l6.2,9.4L267.1,23.4L267.1,23.4z M256.2,12.8h-0.8v10.6h0.8V12.8z M252.6,23.4v-5.5h-3.9v0.8h3.1c0.1,1.2-0.2,2.4-0.9,3.3
	c-0.6,0.6-1.3,0.9-2.1,0.8c-0.8,0-1.6-0.3-2.2-0.8c-1-0.9-1.2-2.6-1.2-3.9c-0.1-1.4,0.3-2.8,1.2-3.9c1.3-1.1,3.2-1.2,4.5-0.1
	c0.4,0.4,0.7,1,0.7,1.6h0.8c-0.2-1.9-1.9-3.3-3.8-3.2c-1.1,0-2.1,0.4-2.8,1.1c-1,1.2-1.5,2.8-1.4,4.4c-0.1,1.6,0.3,3.2,1.4,4.4
	c0.8,0.7,1.8,1.1,2.8,1.1c1.3,0,2.5-0.7,3.1-1.8l0.1,1.6H252.6L252.6,23.4z M242.1,23.4V12.8h-0.8v9.4l-6.2-9.4h-0.9v10.6h0.8V14
	l6.2,9.4L242.1,23.4L242.1,23.4z M232,23.4v-0.8h-6v-4.5h5.3v-0.7H226v-3.9h6v-0.8h-6.8v10.6H232L232,23.4z M218.1,20.4
	c0,1.8-1.4,2.3-2.9,2.3h-3v-4.4h3C216.8,18.2,218.1,18.6,218.1,20.4 M217.8,15.4c0,1.7-1.1,2-2.6,2h-3v-4h3
	C216.5,13.4,217.8,13.8,217.8,15.4 M218.8,20.3c0.1-1.2-0.7-2.3-1.9-2.6c1.1-0.3,1.8-1.4,1.7-2.5c0-0.8-0.4-1.5-1.1-2
	c-0.7-0.4-1.5-0.6-2.3-0.6h-3.8v10.7h3.8c0.9,0.1,1.9-0.2,2.7-0.7c0.7-0.5,1-1.4,1-2.2 M209.2,23.4v-0.8h-6v-4.5h5.3v-0.7h-5.3v-3.9
	h6v-0.8h-6.8v10.6L209.2,23.4L209.2,23.4z M200.2,12.8h-0.7l-2,9.5l-2.8-9.3H194l-2.8,9.3l-2-9.5h-0.7l2.2,10.6h0.8l2.8-9.3l2.8,9.3
	h0.9L200.2,12.8z M183.2,23.4v-0.8h-6v-4.5h5.3v-0.7h-5.3v-3.9h6v-0.8h-6.8v10.6L183.2,23.4L183.2,23.4z M173.3,23.4V12.8h-0.8v4.6
	h-5.9v-4.6h-0.8v10.6h0.8v-5.2h5.9v5.2L173.3,23.4L173.3,23.4z M163.8,13.5v-0.8h-7.6v0.8h3.4v9.9h0.8v-9.9L163.8,13.5L163.8,13.5z"
	/>
</svg>
