<?xml version="1.0" encoding="utf-8"?>
<!-- Generator: Adobe Illustrator 19.2.1, SVG Export Plug-In . SVG Version: 6.00 Build 0)  -->
<svg version="1.1" id="w11k_Logo_w11k_Sub_zentriert_links"
	 xmlns="http://www.w3.org/2000/svg" xmlns:xlink="http://www.w3.org/1999/xlink" x="0px" y="0px" viewBox="0 0 356.2 36.1"
	 style="enable-background:new 0 0 356.2 36.1;" xml:space="preserve">
<style type="text/css">
	.st0{fill:#FFFFFF;}
</style>
<title>w11K_CorporateDesign_Logo_Sub_w11k_Zen_Li_C100M95Y0K3</title>
<polygon class="st0" points="290.7,11.3 290.7,36.1 301.3,36.1 301.3,0 "/>
<polygon class="st0" points="269.4,11.3 269.4,36.1 280,36.1 280,0 "/>
<polygon class="st0" points="322.6,20.5 322.6,0 311.9,0 311.9,31.9 "/>
<polygon class="st0" points="260,27.6 252.1,36.1 234.7,0 246.7,0 "/>
<polygon class="st0" points="222.6,0 235.9,27.6 228,36.1 210.6,0 "/>
<polygon class="st0" points="356.2,0 343.6,0 326.7,18.1 343.6,36.1 356.2,36.1 339.3,18.1 "/>
<path class="st0" d="M200,20.5c-0.1-1.5-1.3-2.8-2.8-2.9l-2-0.2c-1,0-1.9-0.8-1.9-1.8c0,0,0-0.1,0-0.1c0-0.6,0.2-1.1,0.7-1.5
	c0.6-0.4,1.3-0.7,2-0.6c0.9,0,1.7,0.3,2.3,0.9c0.3,0.4,0.5,0.8,0.6,1.4h0.8c-0.1-0.7-0.3-1.3-0.8-1.8c-1.5-1.5-3.9-1.6-5.5-0.2
	c-1.1,1-1.2,2.6-0.3,3.8c0.5,0.6,1.2,0.9,2,0.9l2,0.2c1.1,0.1,2,0.9,2.1,2.1c0,0.6-0.2,1.1-0.6,1.5c-0.7,0.6-1.5,0.8-2.4,0.8
	c-0.9,0-1.7-0.3-2.3-0.9c-0.4-0.4-0.7-1-0.8-1.6h-0.8c0.1,0.8,0.4,1.5,1,2.1c0.8,0.8,1.9,1.2,3,1.1c1.1,0.1,2.2-0.3,3-1
	c0.5-0.5,0.9-1.2,0.8-2 M189.7,15.9c0,1.5-1,2.3-2.8,2.3h-3.1v-4.8h3.1c1.8,0,2.8,0.8,2.8,2.3 M190.5,15.8c0-1.8-1.3-3.1-3.6-3.1h-4
	v10.6h0.8v-4.5h3.7l2.1,4.5h0.9l-2.2-4.7C189.6,18.4,190.5,17.2,190.5,15.8 M180.8,23.4v-0.8h-6v-4.5h5.3v-0.8h-5.3v-3.9h6v-0.8H174
	v10.6L180.8,23.4L180.8,23.4z M171.7,23.4v-0.8h-6v-4.5h5.3v-0.8h-5.3v-3.9h6v-0.8h-6.8v10.6L171.7,23.4L171.7,23.4z M161.8,23.4
	V12.8H161v9.4l-6.2-9.4H154v10.6h0.8V14l6.2,9.4L161.8,23.4L161.8,23.4z M151,12.8h-0.8v10.6h0.8V12.8z M147.4,23.4v-5.5h-3.9v0.8
	h3.1c0.1,1.2-0.2,2.4-0.9,3.3c-0.6,0.6-1.3,0.9-2.1,0.8c-0.8,0-1.6-0.3-2.2-0.8c-1-0.9-1.2-2.6-1.2-3.9c-0.1-1.4,0.3-2.8,1.2-3.9
	c1.3-1.1,3.2-1.2,4.5-0.1c0.4,0.4,0.7,1,0.7,1.6h0.8c-0.2-1.9-1.9-3.3-3.8-3.2c-1.1,0-2.1,0.4-2.8,1.1c-1,1.2-1.5,2.8-1.4,4.4
	c-0.1,1.6,0.3,3.2,1.4,4.4c0.8,0.7,1.8,1.1,2.8,1.1c1.3,0,2.5-0.7,3.1-1.8l0.2,1.6L147.4,23.4L147.4,23.4z M136.9,23.4V12.8h-0.8
	v9.4l-6.2-9.4H129v10.6h0.8V14l6.2,9.4H136.9L136.9,23.4z M126.8,23.4v-0.8h-6v-4.5h5.3v-0.8h-5.3v-3.9h6v-0.8H120v10.6H126.8
	L126.8,23.4z M112.8,20.4c0,1.8-1.4,2.3-2.8,2.3h-3v-4.4h3C111.5,18.2,112.8,18.6,112.8,20.4 M112.6,15.4c0,1.7-1.1,2-2.6,2h-3v-4h3
	C111.3,13.4,112.6,13.8,112.6,15.4 M113.6,20.3c0.1-1.2-0.7-2.3-1.9-2.6c1.1-0.3,1.8-1.4,1.7-2.5c0-0.8-0.4-1.5-1.1-2
	c-0.7-0.4-1.5-0.6-2.3-0.6h-3.8v10.7h3.8c0.9,0.1,1.9-0.2,2.7-0.7c0.7-0.5,1-1.4,1-2.2 M104,23.4v-0.8h-6v-4.5h5.3v-0.8H98v-3.9h6
	v-0.8h-6.8v10.6H104z M95,12.8h-0.8l-2,9.5l-2.8-9.3h-0.7L86,22.3l-2-9.5h-0.8l2.2,10.6h0.8l2.8-9.3l2.8,9.3h0.9L95,12.8z M78,23.4
	v-0.8h-6v-4.5h5.3v-0.8H72v-3.9h6v-0.8h-6.8v10.6H78z M68.2,23.4V12.8h-0.8v4.6h-6v-4.6h-0.8v10.6h0.8v-5.2h5.9v5.2H68.2L68.2,23.4z
	 M58.6,13.5v-0.7h-7.6v0.8h3.4v9.9h0.8v-9.9L58.6,13.5L58.6,13.5z M47.2,18.5h-7v0.7h7C47.2,19.2,47.2,18.5,47.2,18.5z M36.4,23.4
	l-3.9-6.7l3.5-4h-1l-5.9,6.5v-6.5h-0.8v10.6h0.8v-3l2.8-3.1l3.5,6.1H36.4L36.4,23.4z M24.4,23.4V13h-0.6l-2.7,2v0.8l2.6-1.9v9.5
	H24.4L24.4,23.4z M17.4,23.4V13h-0.7l-2.7,2v0.8l2.6-1.9v9.5H17.4z M11.8,12.8H11l-2,9.5l-2.8-9.3H5.5l-2.8,9.3l-2-9.5H0l2.2,10.6
	h0.8l2.8-9.3l2.8,9.3h0.8L11.8,12.8z"/>
</svg>
