<?xml version="1.0" encoding="utf-8"?>
<!-- Generator: Adobe Illustrator 19.2.1, SVG Export Plug-In . SVG Version: 6.00 Build 0)  -->
<svg version="1.1" id="w11k_Logo_w11k_Sub_Re" xmlns="http://www.w3.org/2000/svg" xmlns:xlink="http://www.w3.org/1999/xlink"
	 x="0px" y="0px" viewBox="0 0 145.7 46.9" style="enable-background:new 0 0 145.7 46.9;" xml:space="preserve">
<style type="text/css">
	.st0{fill:#FFFFFF;}
</style>
<title>w11K_CorporateDesign_Logo_Sub_w11k_C100M95Y0K3</title>
<polygon class="st0" points="80.1,11.3 80.1,36.1 90.7,36.1 90.7,0 "/>
<polygon class="st0" points="58.8,11.3 58.8,36.1 69.4,36.1 69.4,0 "/>
<polygon class="st0" points="112,20.5 112,0 101.3,0 101.3,31.9 "/>
<polygon class="st0" points="49.4,27.6 41.5,36.1 24.1,0 36.1,0 "/>
<polygon class="st0" points="12.1,0 25.3,27.6 17.4,36.1 0,0 "/>
<polygon class="st0" points="145.6,0 133,0 116.1,18.1 133,36.1 145.6,36.1 128.7,18.1 "/>
<path class="st0" d="M81.9,42.4v4.4h-0.3v-4.4h-1.5v-0.3h3.3v0.3C83.4,42.4,81.9,42.4,81.9,42.4z"/>
<path class="st0" d="M87.3,46.8v-2.3h-2.6v2.3h-0.3v-4.7h0.3v2.1h2.6v-2.1h0.3v4.7H87.3z"/>
<path class="st0" d="M88.9,46.8v-4.7h3v0.3h-2.7v1.7h2.3v0.3h-2.3v2H92v0.3L88.9,46.8L88.9,46.8z"/>
<path class="st0" d="M98.4,46.8H98l-1.2-4.1l-1.2,4.1h-0.3l-1-4.7h0.3l0.9,4.2l1.2-4.1H97l1.2,4.1l0.9-4.2h0.3L98.4,46.8z"/>
<path class="st0" d="M100.4,46.8v-4.7h3v0.3h-2.7v1.7h2.3v0.3h-2.3v2h2.7v0.3L100.4,46.8L100.4,46.8z"/>
<path class="st0" d="M107.2,46.5c-0.3,0.2-0.8,0.4-1.2,0.3h-1.7v-4.7h1.7c0.4,0,0.7,0.1,1,0.2c0.3,0.2,0.5,0.5,0.5,0.9
	c0.1,0.5-0.3,1-0.8,1.1c0.5,0.1,0.9,0.6,0.9,1.2C107.7,45.8,107.5,46.2,107.2,46.5z M106.1,42.4h-1.3v1.8h1.3c0.7,0,1.2-0.2,1.2-0.9
	C107.2,42.7,106.7,42.3,106.1,42.4C106.1,42.4,106.1,42.4,106.1,42.4z M106.1,44.5h-1.3v2h1.3c0.5,0.1,1.1-0.2,1.2-0.7
	c0-0.1,0-0.2,0-0.3c0-0.6-0.4-1-1-1C106.3,44.4,106.2,44.5,106.1,44.5z"/>
<path class="st0" d="M110.4,46.8v-4.7h3v0.3h-2.7v1.7h2.3v0.3h-2.3v2h2.7v0.3L110.4,46.8L110.4,46.8z"/>
<path class="st0" d="M117.5,46.8l-2.7-4.2v4.2h-0.3v-4.7h0.4l2.7,4.2v-4.2h0.3v4.7H117.5z"/>
<path class="st0" d="M122.2,46.8l-0.1-0.8c-0.3,0.5-0.8,0.8-1.4,0.8c-0.5,0-0.9-0.2-1.2-0.5c-0.4-0.5-0.7-1.2-0.6-1.9
	c-0.1-0.7,0.2-1.4,0.6-1.9c0.3-0.3,0.8-0.5,1.2-0.5c0.9-0.1,1.6,0.5,1.7,1.4h-0.3c0-0.3-0.1-0.5-0.3-0.7c-0.6-0.5-1.4-0.5-2,0
	c-0.4,0.5-0.6,1.1-0.5,1.7c-0.1,0.6,0.1,1.2,0.5,1.7c0.3,0.3,0.6,0.4,1,0.4c0.4,0,0.7-0.1,0.9-0.4c0.3-0.4,0.5-0.9,0.4-1.5h-1.4
	v-0.3h1.7v2.4H122.2L122.2,46.8z"/>
<path class="st0" d="M123.8,46.8v-4.7h0.3v4.7H123.8z"/>
<path class="st0" d="M128.5,46.8l-2.7-4.2v4.2h-0.3v-4.7h0.4l2.7,4.2v-4.2h0.3v4.7H128.5z"/>
<path class="st0" d="M130.2,46.8v-4.7h3v0.3h-2.7v1.7h2.3v0.3h-2.3v2h2.7v0.3L130.2,46.8L130.2,46.8z"/>
<path class="st0" d="M134.2,46.8v-4.7h3v0.3h-2.6v1.7h2.3v0.3h-2.3v2h2.7v0.3L134.2,46.8L134.2,46.8z"/>
<path class="st0" d="M140.6,44.7l1,2.1h-0.4l-0.9-2h-1.7v2h-0.4v-4.7h1.8c0.7-0.1,1.4,0.4,1.6,1.1c0,0.1,0,0.2,0,0.2
	C141.6,44,141.2,44.6,140.6,44.7z M140,42.4h-1.4v2.1h1.4c0.6,0,1-0.5,1-1C141,42.9,140.6,42.4,140,42.4z"/>
<path class="st0" d="M145.3,46.4c-0.4,0.3-0.8,0.5-1.3,0.5c-0.5,0-1-0.2-1.3-0.5c-0.2-0.3-0.4-0.6-0.4-0.9h0.4
	c0,0.3,0.2,0.5,0.4,0.7c0.3,0.3,0.6,0.4,1,0.4c0.4,0,0.8-0.1,1.1-0.3c0.2-0.2,0.3-0.4,0.3-0.7c0-0.5-0.4-0.9-0.9-0.9l-0.9-0.1
	c-0.7,0-1.2-0.6-1.2-1.2c0-0.3,0.2-0.7,0.4-0.9c0.7-0.6,1.8-0.5,2.4,0.1c0.2,0.2,0.3,0.5,0.4,0.8h-0.4c0-0.2-0.1-0.4-0.3-0.6
	c-0.3-0.3-0.6-0.4-1-0.4c-0.3,0-0.6,0.1-0.9,0.3c-0.2,0.2-0.3,0.4-0.3,0.7c0,0.4,0.4,0.8,0.8,0.8c0,0,0,0,0,0l0.9,0.1
	c0.7,0,1.2,0.6,1.2,1.3C145.7,45.8,145.6,46.2,145.3,46.4z"/>
<path class="st0" d="M63,46.8h-0.3l-1.2-4.1l-1.2,4.1h-0.4l-1-4.7h0.3l0.9,4.2l1.2-4.1h0.3l1.2,4.1l0.9-4.2H64L63,46.8z"/>
<path class="st0" d="M66.1,46.8v-4.2l-1.2,0.8V43l1.2-0.9h0.3v4.6L66.1,46.8L66.1,46.8z"/>
<path class="st0" d="M69,46.8v-4.2l-1.2,0.8V43l1.2-0.9h0.3v4.6L69,46.8L69,46.8z"/>
<path class="st0" d="M74.1,46.8l-1.6-2.7l-1.2,1.4v1.3H71v-4.7h0.3V45l2.6-2.9h0.4l-1.6,1.8l1.7,3L74.1,46.8L74.1,46.8z"/>
</svg>
